<mxfile host="app.diagrams.net" modified="2023-09-02T19:35:05.907Z" agent="Mozilla/5.0 (Windows NT 10.0; Win64; x64) AppleWebKit/537.36 (KHTML, like Gecko) Chrome/116.0.0.0 Safari/537.36" etag="USLFaGu-oUQaa3JxBUvY" version="21.7.2" type="device">
  <diagram name="Страница — 1" id="JsH9alyImjJC-fefApQr">
    <mxGraphModel dx="880" dy="480" grid="1" gridSize="10" guides="1" tooltips="1" connect="1" arrows="1" fold="1" page="1" pageScale="1" pageWidth="827" pageHeight="1169" math="0" shadow="0">
      <root>
        <mxCell id="0" />
        <mxCell id="1" parent="0" />
        <mxCell id="arJfRRthWg4Xcm22aFBy-1" value="Track" style="swimlane;fontStyle=1;align=center;verticalAlign=top;childLayout=stackLayout;horizontal=1;startSize=26;horizontalStack=0;resizeParent=1;resizeParentMax=0;resizeLast=0;collapsible=1;marginBottom=0;whiteSpace=wrap;html=1;" parent="1" vertex="1">
          <mxGeometry x="40" y="40" width="160" height="170" as="geometry">
            <mxRectangle x="40" y="40" width="70" height="30" as="alternateBounds" />
          </mxGeometry>
        </mxCell>
        <mxCell id="arJfRRthWg4Xcm22aFBy-2" value="- name: srt&lt;br&gt;- singer: Singer&lt;br&gt;- genre: str&lt;br&gt;-&amp;nbsp;duration: int" style="text;strokeColor=none;fillColor=none;align=left;verticalAlign=top;spacingLeft=4;spacingRight=4;overflow=hidden;rotatable=0;points=[[0,0.5],[1,0.5]];portConstraint=eastwest;whiteSpace=wrap;html=1;" parent="arJfRRthWg4Xcm22aFBy-1" vertex="1">
          <mxGeometry y="26" width="160" height="64" as="geometry" />
        </mxCell>
        <mxCell id="arJfRRthWg4Xcm22aFBy-3" value="" style="line;strokeWidth=1;fillColor=none;align=left;verticalAlign=middle;spacingTop=-1;spacingLeft=3;spacingRight=3;rotatable=0;labelPosition=right;points=[];portConstraint=eastwest;strokeColor=inherit;" parent="arJfRRthWg4Xcm22aFBy-1" vertex="1">
          <mxGeometry y="90" width="160" height="8" as="geometry" />
        </mxCell>
        <mxCell id="arJfRRthWg4Xcm22aFBy-4" value="+ change_name()&lt;br&gt;+ change_duration()&lt;br&gt;+ change_genre()&lt;br&gt;+ change_singer(Singer)" style="text;strokeColor=none;fillColor=none;align=left;verticalAlign=top;spacingLeft=4;spacingRight=4;overflow=hidden;rotatable=0;points=[[0,0.5],[1,0.5]];portConstraint=eastwest;whiteSpace=wrap;html=1;" parent="arJfRRthWg4Xcm22aFBy-1" vertex="1">
          <mxGeometry y="98" width="160" height="72" as="geometry" />
        </mxCell>
        <mxCell id="arJfRRthWg4Xcm22aFBy-9" value="Album" style="swimlane;fontStyle=1;align=center;verticalAlign=top;childLayout=stackLayout;horizontal=1;startSize=26;horizontalStack=0;resizeParent=1;resizeParentMax=0;resizeLast=0;collapsible=1;marginBottom=0;whiteSpace=wrap;html=1;" parent="1" vertex="1">
          <mxGeometry x="360" y="40" width="160" height="170" as="geometry" />
        </mxCell>
        <mxCell id="arJfRRthWg4Xcm22aFBy-10" value="- tracklist: list&lt;br&gt;- name: str&lt;br&gt;- year: int&lt;br&gt;- singer: Singer" style="text;strokeColor=none;fillColor=none;align=left;verticalAlign=top;spacingLeft=4;spacingRight=4;overflow=hidden;rotatable=0;points=[[0,0.5],[1,0.5]];portConstraint=eastwest;whiteSpace=wrap;html=1;" parent="arJfRRthWg4Xcm22aFBy-9" vertex="1">
          <mxGeometry y="26" width="160" height="74" as="geometry" />
        </mxCell>
        <mxCell id="arJfRRthWg4Xcm22aFBy-11" value="" style="line;strokeWidth=1;fillColor=none;align=left;verticalAlign=middle;spacingTop=-1;spacingLeft=3;spacingRight=3;rotatable=0;labelPosition=right;points=[];portConstraint=eastwest;strokeColor=inherit;" parent="arJfRRthWg4Xcm22aFBy-9" vertex="1">
          <mxGeometry y="100" width="160" height="8" as="geometry" />
        </mxCell>
        <mxCell id="arJfRRthWg4Xcm22aFBy-12" value="+ add_track()&lt;br&gt;+ remove_track()" style="text;strokeColor=none;fillColor=none;align=left;verticalAlign=top;spacingLeft=4;spacingRight=4;overflow=hidden;rotatable=0;points=[[0,0.5],[1,0.5]];portConstraint=eastwest;whiteSpace=wrap;html=1;" parent="arJfRRthWg4Xcm22aFBy-9" vertex="1">
          <mxGeometry y="108" width="160" height="62" as="geometry" />
        </mxCell>
        <mxCell id="arJfRRthWg4Xcm22aFBy-13" value="Singer" style="swimlane;fontStyle=1;align=center;verticalAlign=top;childLayout=stackLayout;horizontal=1;startSize=26;horizontalStack=0;resizeParent=1;resizeParentMax=0;resizeLast=0;collapsible=1;marginBottom=0;whiteSpace=wrap;html=1;" parent="1" vertex="1">
          <mxGeometry x="40" y="300" width="160" height="130" as="geometry" />
        </mxCell>
        <mxCell id="arJfRRthWg4Xcm22aFBy-14" value="- name: str&lt;br&gt;- albumlist: list" style="text;strokeColor=none;fillColor=none;align=left;verticalAlign=top;spacingLeft=4;spacingRight=4;overflow=hidden;rotatable=0;points=[[0,0.5],[1,0.5]];portConstraint=eastwest;whiteSpace=wrap;html=1;" parent="arJfRRthWg4Xcm22aFBy-13" vertex="1">
          <mxGeometry y="26" width="160" height="44" as="geometry" />
        </mxCell>
        <mxCell id="arJfRRthWg4Xcm22aFBy-15" value="" style="line;strokeWidth=1;fillColor=none;align=left;verticalAlign=middle;spacingTop=-1;spacingLeft=3;spacingRight=3;rotatable=0;labelPosition=right;points=[];portConstraint=eastwest;strokeColor=inherit;" parent="arJfRRthWg4Xcm22aFBy-13" vertex="1">
          <mxGeometry y="70" width="160" height="8" as="geometry" />
        </mxCell>
        <mxCell id="arJfRRthWg4Xcm22aFBy-16" value="+ add_album()&lt;br style=&quot;border-color: var(--border-color);&quot;&gt;+ remove_album()" style="text;strokeColor=none;fillColor=none;align=left;verticalAlign=top;spacingLeft=4;spacingRight=4;overflow=hidden;rotatable=0;points=[[0,0.5],[1,0.5]];portConstraint=eastwest;whiteSpace=wrap;html=1;" parent="arJfRRthWg4Xcm22aFBy-13" vertex="1">
          <mxGeometry y="78" width="160" height="52" as="geometry" />
        </mxCell>
        <mxCell id="arJfRRthWg4Xcm22aFBy-17" value="MusicCollection" style="swimlane;fontStyle=1;align=center;verticalAlign=top;childLayout=stackLayout;horizontal=1;startSize=26;horizontalStack=0;resizeParent=1;resizeParentMax=0;resizeLast=0;collapsible=1;marginBottom=0;whiteSpace=wrap;html=1;" parent="1" vertex="1">
          <mxGeometry x="360" y="300" width="160" height="200" as="geometry" />
        </mxCell>
        <mxCell id="arJfRRthWg4Xcm22aFBy-18" value="- tracklist: list&lt;br&gt;- albumlist: list&lt;br&gt;- singerlist: list" style="text;strokeColor=none;fillColor=none;align=left;verticalAlign=top;spacingLeft=4;spacingRight=4;overflow=hidden;rotatable=0;points=[[0,0.5],[1,0.5]];portConstraint=eastwest;whiteSpace=wrap;html=1;" parent="arJfRRthWg4Xcm22aFBy-17" vertex="1">
          <mxGeometry y="26" width="160" height="54" as="geometry" />
        </mxCell>
        <mxCell id="arJfRRthWg4Xcm22aFBy-19" value="" style="line;strokeWidth=1;fillColor=none;align=left;verticalAlign=middle;spacingTop=-1;spacingLeft=3;spacingRight=3;rotatable=0;labelPosition=right;points=[];portConstraint=eastwest;strokeColor=inherit;" parent="arJfRRthWg4Xcm22aFBy-17" vertex="1">
          <mxGeometry y="80" width="160" height="8" as="geometry" />
        </mxCell>
        <mxCell id="arJfRRthWg4Xcm22aFBy-20" value="+ search()&lt;br&gt;+ add_track(Track)&lt;br&gt;+ remove_track(Track)&lt;br style=&quot;border-color: var(--border-color);&quot;&gt;+ add_album(Album)&lt;br style=&quot;border-color: var(--border-color);&quot;&gt;+ remove_album(Album)&lt;br style=&quot;border-color: var(--border-color);&quot;&gt;+ add_singer(Singer)&lt;br style=&quot;border-color: var(--border-color);&quot;&gt;+ remove_singer(Singer)" style="text;strokeColor=none;fillColor=none;align=left;verticalAlign=top;spacingLeft=4;spacingRight=4;overflow=hidden;rotatable=0;points=[[0,0.5],[1,0.5]];portConstraint=eastwest;whiteSpace=wrap;html=1;" parent="arJfRRthWg4Xcm22aFBy-17" vertex="1">
          <mxGeometry y="88" width="160" height="112" as="geometry" />
        </mxCell>
        <mxCell id="arJfRRthWg4Xcm22aFBy-21" value="" style="endArrow=diamondThin;endFill=0;endSize=24;html=1;rounded=0;exitX=0.8;exitY=-0.02;exitDx=0;exitDy=0;exitPerimeter=0;entryX=0.806;entryY=1.032;entryDx=0;entryDy=0;entryPerimeter=0;labelPosition=right;verticalLabelPosition=top;align=left;verticalAlign=bottom;" parent="1" source="arJfRRthWg4Xcm22aFBy-17" target="arJfRRthWg4Xcm22aFBy-12" edge="1">
          <mxGeometry width="160" relative="1" as="geometry">
            <mxPoint x="330" y="230" as="sourcePoint" />
            <mxPoint x="490" y="230" as="targetPoint" />
          </mxGeometry>
        </mxCell>
        <mxCell id="arJfRRthWg4Xcm22aFBy-22" value="n" style="text;html=1;strokeColor=none;fillColor=none;align=center;verticalAlign=middle;whiteSpace=wrap;rounded=0;" parent="1" vertex="1">
          <mxGeometry x="480" y="210" width="60" height="30" as="geometry" />
        </mxCell>
        <mxCell id="arJfRRthWg4Xcm22aFBy-23" value="1" style="text;html=1;strokeColor=none;fillColor=none;align=center;verticalAlign=middle;whiteSpace=wrap;rounded=0;" parent="1" vertex="1">
          <mxGeometry x="480" y="270" width="60" height="30" as="geometry" />
        </mxCell>
        <mxCell id="arJfRRthWg4Xcm22aFBy-24" value="" style="endArrow=diamondThin;endFill=0;endSize=24;html=1;rounded=0;exitX=-0.019;exitY=0.315;exitDx=0;exitDy=0;exitPerimeter=0;labelPosition=right;verticalLabelPosition=top;align=left;verticalAlign=bottom;entryX=1.013;entryY=0.859;entryDx=0;entryDy=0;entryPerimeter=0;" parent="1" source="arJfRRthWg4Xcm22aFBy-18" target="arJfRRthWg4Xcm22aFBy-2" edge="1">
          <mxGeometry width="160" relative="1" as="geometry">
            <mxPoint x="300" y="284" as="sourcePoint" />
            <mxPoint x="320" y="120" as="targetPoint" />
            <Array as="points">
              <mxPoint x="260" y="343" />
              <mxPoint x="260" y="121" />
            </Array>
          </mxGeometry>
        </mxCell>
        <mxCell id="arJfRRthWg4Xcm22aFBy-25" value="n" style="text;html=1;strokeColor=none;fillColor=none;align=center;verticalAlign=middle;whiteSpace=wrap;rounded=0;" parent="1" vertex="1">
          <mxGeometry x="190" y="90" width="60" height="30" as="geometry" />
        </mxCell>
        <mxCell id="arJfRRthWg4Xcm22aFBy-26" value="1" style="text;html=1;strokeColor=none;fillColor=none;align=center;verticalAlign=middle;whiteSpace=wrap;rounded=0;" parent="1" vertex="1">
          <mxGeometry x="310" y="320" width="60" height="30" as="geometry" />
        </mxCell>
        <mxCell id="arJfRRthWg4Xcm22aFBy-27" value="" style="endArrow=diamondThin;endFill=0;endSize=24;html=1;rounded=0;exitX=-0.019;exitY=0.107;exitDx=0;exitDy=0;exitPerimeter=0;entryX=1.013;entryY=0.385;entryDx=0;entryDy=0;entryPerimeter=0;labelPosition=right;verticalLabelPosition=top;align=left;verticalAlign=bottom;" parent="1" source="arJfRRthWg4Xcm22aFBy-20" target="arJfRRthWg4Xcm22aFBy-16" edge="1">
          <mxGeometry width="160" relative="1" as="geometry">
            <mxPoint x="498" y="306" as="sourcePoint" />
            <mxPoint x="499" y="222" as="targetPoint" />
          </mxGeometry>
        </mxCell>
        <mxCell id="arJfRRthWg4Xcm22aFBy-28" value="1" style="text;html=1;strokeColor=none;fillColor=none;align=center;verticalAlign=middle;whiteSpace=wrap;rounded=0;" parent="1" vertex="1">
          <mxGeometry x="310" y="380" width="60" height="30" as="geometry" />
        </mxCell>
        <mxCell id="arJfRRthWg4Xcm22aFBy-29" value="n" style="text;html=1;strokeColor=none;fillColor=none;align=center;verticalAlign=middle;whiteSpace=wrap;rounded=0;" parent="1" vertex="1">
          <mxGeometry x="180" y="370" width="60" height="30" as="geometry" />
        </mxCell>
        <mxCell id="arJfRRthWg4Xcm22aFBy-30" value="" style="endArrow=diamondThin;endFill=1;endSize=24;html=1;rounded=0;exitX=-0.019;exitY=0.176;exitDx=0;exitDy=0;exitPerimeter=0;entryX=1.006;entryY=0.203;entryDx=0;entryDy=0;entryPerimeter=0;" parent="1" source="arJfRRthWg4Xcm22aFBy-10" target="arJfRRthWg4Xcm22aFBy-2" edge="1">
          <mxGeometry width="160" relative="1" as="geometry">
            <mxPoint x="330" y="250" as="sourcePoint" />
            <mxPoint x="490" y="250" as="targetPoint" />
          </mxGeometry>
        </mxCell>
        <mxCell id="arJfRRthWg4Xcm22aFBy-31" value="n" style="text;html=1;strokeColor=none;fillColor=none;align=center;verticalAlign=middle;whiteSpace=wrap;rounded=0;" parent="1" vertex="1">
          <mxGeometry x="190" y="50" width="60" height="30" as="geometry" />
        </mxCell>
        <mxCell id="arJfRRthWg4Xcm22aFBy-32" value="1" style="text;html=1;strokeColor=none;fillColor=none;align=center;verticalAlign=middle;whiteSpace=wrap;rounded=0;" parent="1" vertex="1">
          <mxGeometry x="320" y="50" width="60" height="30" as="geometry" />
        </mxCell>
        <mxCell id="arJfRRthWg4Xcm22aFBy-33" value="" style="endArrow=diamondThin;endFill=1;endSize=24;html=1;rounded=0;exitX=0.55;exitY=-0.008;exitDx=0;exitDy=0;exitPerimeter=0;entryX=0.388;entryY=1.032;entryDx=0;entryDy=0;entryPerimeter=0;" parent="1" source="arJfRRthWg4Xcm22aFBy-13" target="arJfRRthWg4Xcm22aFBy-12" edge="1">
          <mxGeometry width="160" relative="1" as="geometry">
            <mxPoint x="367" y="89" as="sourcePoint" />
            <mxPoint x="211" y="89" as="targetPoint" />
            <Array as="points">
              <mxPoint x="128" y="270" />
              <mxPoint x="420" y="270" />
            </Array>
          </mxGeometry>
        </mxCell>
        <mxCell id="arJfRRthWg4Xcm22aFBy-34" value="n" style="text;html=1;strokeColor=none;fillColor=none;align=center;verticalAlign=middle;whiteSpace=wrap;rounded=0;" parent="1" vertex="1">
          <mxGeometry x="370" y="210" width="60" height="30" as="geometry" />
        </mxCell>
        <mxCell id="arJfRRthWg4Xcm22aFBy-35" value="1" style="text;html=1;strokeColor=none;fillColor=none;align=center;verticalAlign=middle;whiteSpace=wrap;rounded=0;" parent="1" vertex="1">
          <mxGeometry x="90" y="270" width="60" height="30" as="geometry" />
        </mxCell>
      </root>
    </mxGraphModel>
  </diagram>
</mxfile>
